<svg width="396" height="57" viewBox="0 0 396 57" fill="none" xmlns="http://www.w3.org/2000/svg">
<path d="M-5.53131e-05 18.4111C-5.53131e-05 21.6648 2.63763 24.3025 5.89138 24.3025C9.14512 24.3025 11.7828 21.6648 11.7828 18.4111C11.7828 15.1573 9.14512 12.5197 5.89138 12.5197C2.63763 12.5197 -5.53131e-05 15.1573 -5.53131e-05 18.4111Z" fill="#FFCC33"/>
<path d="M-5.53131e-05 47.8682C-5.53131e-05 51.122 2.63763 53.7597 5.89138 53.7597C9.14512 53.7597 11.7828 51.122 11.7828 47.8682C11.7828 44.6145 9.14512 41.9768 5.89138 41.9768C2.63763 41.9768 -5.53131e-05 44.6145 -5.53131e-05 47.8682Z" fill="#FFCC33"/>
<path d="M2.20948 33.1398C2.20948 35.1735 3.85805 36.822 5.89168 36.822C7.9253 36.822 9.57388 35.1735 9.57388 33.1398C9.57388 31.1062 7.9253 29.4576 5.89168 29.4576C3.85805 29.4576 2.20948 31.1062 2.20948 33.1398Z" fill="#FFCC33"/>
<path d="M2.20948 3.6822C2.20948 5.71583 3.85805 7.36441 5.89168 7.36441C7.9253 7.36441 9.57388 5.71583 9.57388 3.6822C9.57388 1.64858 7.9253 0 5.89168 0C3.85805 0 2.20948 1.64858 2.20948 3.6822Z" fill="#FFCC33"/>
<path d="M22.6083 38.5889C22.6083 41.8427 25.246 44.4804 28.4997 44.4804C31.7535 44.4804 34.3912 41.8427 34.3912 38.5889C34.3912 35.3352 31.7535 32.6975 28.4997 32.6975C25.246 32.6975 22.6083 35.3352 22.6083 38.5889Z" fill="#FFCC33"/>
<path d="M24.8178 53.3178C24.8178 55.3514 26.4664 57 28.5 57C30.5337 57 32.1823 55.3514 32.1823 53.3178C32.1823 51.2842 30.5337 49.6356 28.5 49.6356C26.4664 49.6356 24.8178 51.2842 24.8178 53.3178Z" fill="#FFCC33"/>
<path d="M24.8178 23.8605C24.8178 25.8942 26.4664 27.5428 28.5 27.5428C30.5337 27.5428 32.1823 25.8942 32.1823 23.8605C32.1823 21.8269 30.5337 20.1783 28.5 20.1783C26.4664 20.1783 24.8178 21.8269 24.8178 23.8605Z" fill="#FFCC33"/>
<path d="M24.8178 9.13203C24.8178 11.1657 26.4664 12.8142 28.5 12.8142C30.5337 12.8142 32.1823 11.1657 32.1823 9.13203C32.1823 7.09841 30.5337 5.44983 28.5 5.44983C26.4664 5.44983 24.8178 7.09841 24.8178 9.13203Z" fill="#FFCC33"/>
<path d="M45.2173 18.4111C45.2173 21.6648 47.855 24.3025 51.1088 24.3025C54.3625 24.3025 57.0002 21.6648 57.0002 18.4111C57.0002 15.1573 54.3625 12.5197 51.1088 12.5197C47.855 12.5197 45.2173 15.1573 45.2173 18.4111Z" fill="#FFCC33"/>
<path d="M47.4269 3.6822C47.4269 5.71583 49.0754 7.36441 51.1091 7.36441C53.1427 7.36441 54.7913 5.71583 54.7913 3.6822C54.7913 1.64858 53.1427 0 51.1091 0C49.0754 0 47.4269 1.64858 47.4269 3.6822Z" fill="#FFCC33"/>
<path d="M47.4269 33.1398C47.4269 35.1735 49.0754 36.822 51.1091 36.822C53.1427 36.822 54.7913 35.1735 54.7913 33.1398C54.7913 31.1062 53.1427 29.4576 51.1091 29.4576C49.0754 29.4576 47.4269 31.1062 47.4269 33.1398Z" fill="#FFCC33"/>
<path d="M47.4269 47.8681C47.4269 49.9017 49.0754 51.5503 51.1091 51.5503C53.1427 51.5503 54.7913 49.9017 54.7913 47.8681C54.7913 45.8345 53.1427 44.1859 51.1091 44.1859C49.0754 44.1859 47.4269 45.8345 47.4269 47.8681Z" fill="#FFCC33"/>
<path d="M99.827 41.602H101.677L108.95 14.7929L112.565 14.2765V12.5121H102.796V14.2765L106.712 14.8359L101.247 34.7168L94.8353 14.7929L99.1815 14.2765V12.5121H87.4767V14.2765L91.78 14.7929L85.239 34.5447L79.9461 14.7498L83.905 14.2765V12.5121H72.2002V14.2765L75.7719 14.7068L83.5177 41.602H85.3681L92.3824 19.2682L99.827 41.602Z" fill="black"/>
<path d="M121.456 22.2805C124.124 22.2805 126.147 24.4751 126.147 26.928C126.147 28.1759 125.673 29.1657 123.608 29.1657H115.776C116.249 24.1739 119.046 22.2805 121.456 22.2805ZM121.714 20.301C116.335 20.301 111.817 24.6903 111.817 31.2743C111.817 37.8582 115.604 41.8602 121.413 41.8602C125.329 41.8602 128.083 39.9238 129.675 36.8685L128.643 36.0508C127.093 37.8582 125.415 39.0631 122.661 39.0631C118.53 39.0631 115.776 36.266 115.69 30.973H129.417C129.589 30.4136 129.718 29.553 129.718 28.5632C129.718 23.3563 126.19 20.301 121.714 20.301Z" fill="black"/>
<path d="M138.401 15.5674C139.993 15.5674 141.284 14.4056 141.284 12.8134C141.284 11.1351 139.993 10.0593 138.401 10.0593C136.766 10.0593 135.518 11.1351 135.518 12.8134C135.518 14.4056 136.766 15.5674 138.401 15.5674ZM143.307 39.7516L140.294 39.1492C140.251 36.9976 140.208 34.1574 140.208 32.264V26.5837L140.337 20.7313L139.692 20.301L133.065 22.926V24.4321L136.507 24.8194C136.593 26.5407 136.637 27.8747 136.637 30.2415V32.264C136.637 34.1574 136.593 36.9976 136.55 39.1492L133.323 39.7516V41.3008H143.307V39.7516Z" fill="black"/>
<path d="M155.005 22.0653C157.673 22.0653 159.222 24.1739 159.222 27.2292C159.222 30.4136 157.587 32.6943 154.833 32.6943C152.165 32.6943 150.659 30.5427 150.659 27.4013C150.659 24.26 152.294 22.0653 155.005 22.0653ZM147.173 27.3583C147.173 30.2845 148.421 32.307 150.487 33.4259C148.335 35.4054 147.56 36.8685 147.56 38.2025C147.56 39.8807 148.507 40.9565 150.4 41.4729C147.216 43.0221 146.183 44.5282 146.183 46.3786C146.183 49.4339 148.851 51.5855 155.091 51.5855C162.148 51.5855 165.72 47.8848 165.72 44.1409C165.72 40.6553 163.525 38.5898 158.792 38.5898H153.155C151.132 38.5898 150.659 37.8582 150.659 36.6963C150.659 35.7066 151.003 34.889 151.734 33.9423C152.681 34.2435 153.757 34.4156 154.919 34.4156C159.394 34.4156 162.708 31.8767 162.708 27.3583C162.708 25.8091 162.363 24.4751 161.718 23.4424H165.935V20.7313L165.29 20.301L160.427 21.9793C159.05 20.8604 157.157 20.301 154.962 20.301C150.487 20.301 147.173 22.8399 147.173 27.3583ZM155.263 49.606C151.864 49.606 149.712 48.4872 149.712 45.6901C149.712 44.27 150.185 43.1082 151.39 41.8172C151.95 41.8602 152.552 41.9033 153.155 41.9033H158.189C161.288 41.9033 162.493 43.3664 162.493 45.2598C162.493 47.6696 159.954 49.606 155.263 49.606Z" fill="black"/>
<path d="M171.091 32.264C171.091 34.1574 171.048 36.9976 171.005 39.1492L167.777 39.7516V41.3008H177.761V39.7516L174.792 39.1492C174.749 36.9976 174.706 34.1574 174.706 32.264V26.1964C176.9 24.2169 178.665 23.3993 180.773 23.3993C183.312 23.3993 184.302 24.6473 184.302 28.6063V32.264C184.302 34.2435 184.259 37.0406 184.216 39.1922L181.074 39.7516V41.3008H191.058V39.7516L188.046 39.1492C188.003 36.9976 187.96 34.2435 187.96 32.264V28.262C187.96 22.6247 186.152 20.301 182.452 20.301C179.74 20.301 176.685 21.9362 174.577 24.303V15.9547L174.749 9.84414L174.146 9.49988L167.562 11.4363V12.9425L171.091 13.3728V32.264Z" fill="black"/>
<path d="M199.738 36.4812V23.1411H205.59V20.8604H199.824L200.039 15.008H197.457L196.338 20.7744L192.508 21.2477V23.1411H196.08V33.2968C196.08 34.975 196.037 35.8787 196.037 36.9545C196.037 40.3111 197.93 41.8602 200.943 41.8602C203.137 41.8602 204.902 41.0426 206.02 39.5795L204.988 38.4607C203.912 39.2352 203.051 39.6225 202.105 39.6225C200.641 39.6225 199.738 38.6758 199.738 36.4812Z" fill="black"/>
<path d="M214.721 41.8602C220.273 41.8602 223.113 38.9771 223.113 35.7066C223.113 32.9956 221.478 30.973 217.174 29.3808L215.84 28.9075C212.914 27.8317 211.881 27.1001 211.881 25.2067C211.881 23.4424 213.258 22.2805 215.883 22.2805C216.916 22.2805 217.906 22.5387 218.853 23.012L219.541 26.4546H221.779L221.951 22.0653C220.1 20.9465 218.25 20.301 215.926 20.301C211.107 20.301 208.439 23.2272 208.439 26.3686C208.439 29.2948 210.504 31.0161 213.646 32.1779L215.625 32.9095C218.336 33.8562 219.627 34.8029 219.627 36.6533C219.627 38.5898 218.078 39.9238 214.808 39.9238C213.473 39.9238 212.355 39.7086 211.322 39.2352L210.504 35.4914H208.137L208.31 40.225C210.418 41.3008 212.312 41.8602 214.721 41.8602Z" fill="black"/>
<path d="M244.37 22.2375C242.778 20.258 242.434 18.924 242.434 17.3748C242.434 15.0941 244.155 13.3728 246.35 13.3728C248.458 13.3728 250.094 14.922 250.094 17.4178C250.094 19.9137 248.2 21.8071 245.532 23.6575C245.145 23.2272 244.758 22.7538 244.37 22.2375ZM263.649 41.4299L263.821 39.5365L259.647 38.9771C258.313 37.6 257.194 36.3521 256.118 35.2332C258.098 32.264 259.604 29.0796 260.594 25.1637L263.864 24.5612V22.8399H255.128V24.5612L258.528 25.1206C257.753 28.5202 256.549 31.3173 254.956 33.9853C253.278 32.1779 251.729 30.5427 250.008 28.6493C248.502 27.0141 247.469 25.8522 246.565 24.8194C250.954 22.4526 252.934 20.344 252.934 17.3748C252.934 14.1474 250.653 11.8667 246.393 11.8667C242.348 11.8667 239.336 14.1904 239.336 17.9773C239.336 20.258 240.153 22.4526 242.305 24.9055C242.348 24.9915 242.434 25.0346 242.477 25.1206C238.174 27.2722 235.979 30.1554 235.979 34.0283C235.979 38.3746 239.68 41.8602 245.059 41.8602C249.19 41.8602 251.944 40.268 253.838 38.2025C254.311 38.7619 254.827 39.2783 255.344 39.8807C256.764 41.3438 258.098 41.8602 260.378 41.8602C261.497 41.8602 262.358 41.7311 263.649 41.4299ZM248.2 31.8767C249.663 33.5119 251.04 35.0611 252.59 36.8254C250.954 38.2885 248.631 39.1061 246.221 39.1061C242.047 39.1061 239.723 36.0078 239.723 32.8665C239.723 30.7148 240.541 28.1329 243.51 26.3255C244.93 27.9608 246.264 29.5099 248.2 31.8767Z" fill="black"/>
<path d="M281.771 27.9608C281.771 31.7046 281.771 35.4484 281.685 39.0631L277.726 39.5365V41.3008H289.56C297.822 41.3008 301.049 37.3418 301.049 33.4259C301.049 29.9403 298.64 27.1431 292.916 26.3255C297.693 25.3358 299.586 22.5817 299.586 19.5264C299.586 15.4383 296.187 12.5121 290.205 12.5121H277.726V14.2765L281.685 14.7498C281.771 18.4506 281.771 22.1514 281.771 25.8522V27.9608ZM288.226 27.4013C294.164 27.4013 296.746 29.4239 296.746 33.4259C296.746 37.2127 294.078 39.2783 288.57 39.2783H285.945C285.859 35.6205 285.859 31.9197 285.859 27.4013H288.226ZM288.914 14.4916C293.304 14.4916 295.541 15.9117 295.541 19.8276C295.541 23.7436 293.304 25.4219 288.097 25.4219H285.859C285.859 22.0223 285.859 18.1924 285.945 14.4916H288.914Z" fill="black"/>
<path d="M309.48 15.5674C311.072 15.5674 312.363 14.4056 312.363 12.8134C312.363 11.1351 311.072 10.0593 309.48 10.0593C307.844 10.0593 306.597 11.1351 306.597 12.8134C306.597 14.4056 307.844 15.5674 309.48 15.5674ZM314.385 39.7516L311.373 39.1492C311.33 36.9976 311.287 34.1574 311.287 32.264V26.5837L311.416 20.7313L310.771 20.301L304.144 22.926V24.4321L307.586 24.8194C307.672 26.5407 307.715 27.8747 307.715 30.2415V32.264C307.715 34.1574 307.672 36.9976 307.629 39.1492L304.402 39.7516V41.3008H314.385V39.7516Z" fill="black"/>
<path d="M333.614 41.7311C335.121 41.7311 336.326 41.1717 337.358 39.4934L336.498 38.5467C336.024 39.1061 335.551 39.4934 334.819 39.4934C333.873 39.4934 333.27 38.8049 333.27 36.9545V27.7886C333.27 22.3666 331.119 20.301 326.6 20.301C322.211 20.301 319.027 22.3666 318.209 25.637C318.338 26.7559 319.027 27.4013 320.231 27.4013C321.393 27.4013 322.082 26.6698 322.469 25.3358L323.287 22.5387C324.19 22.3235 324.965 22.2805 325.61 22.2805C328.451 22.2805 329.656 23.3133 329.656 27.4874V28.5632C327.934 28.9505 326.127 29.5099 324.793 29.9833C318.983 32.0919 317.649 34.0283 317.649 36.4812C317.649 40.0529 320.274 41.8602 323.416 41.8602C325.955 41.8602 327.375 40.7414 329.742 38.4176C330.086 40.4402 331.549 41.7311 333.614 41.7311ZM321.479 35.8357C321.479 34.5447 321.953 32.9095 325.697 31.4464C326.6 31.1021 328.149 30.5857 329.656 30.1554V36.7824C327.203 38.5037 326.385 39.0201 324.922 39.0201C322.942 39.0201 321.479 38.1164 321.479 35.8357Z" fill="black"/>
<path d="M346.214 41.8602C351.765 41.8602 354.605 38.9771 354.605 35.7066C354.605 32.9956 352.97 30.973 348.667 29.3808L347.333 28.9075C344.407 27.8317 343.374 27.1001 343.374 25.2067C343.374 23.4424 344.751 22.2805 347.376 22.2805C348.409 22.2805 349.398 22.5387 350.345 23.012L351.034 26.4546H353.271L353.443 22.0653C351.593 20.9465 349.743 20.301 347.419 20.301C342.599 20.301 339.931 23.2272 339.931 26.3686C339.931 29.2948 341.997 31.0161 345.138 32.1779L347.118 32.9095C349.829 33.8562 351.12 34.8029 351.12 36.6533C351.12 38.5898 349.57 39.9238 346.3 39.9238C344.966 39.9238 343.847 39.7086 342.814 39.2352L341.997 35.4914H339.63L339.802 40.225C341.911 41.3008 343.804 41.8602 346.214 41.8602Z" fill="black"/>
<path d="M367.842 22.2805C370.51 22.2805 372.532 24.4751 372.532 26.928C372.532 28.1759 372.059 29.1657 369.993 29.1657H362.161C362.635 24.1739 365.432 22.2805 367.842 22.2805ZM368.1 20.301C362.721 20.301 358.202 24.6903 358.202 31.2743C358.202 37.8582 361.989 41.8602 367.799 41.8602C371.715 41.8602 374.469 39.9238 376.061 36.8685L375.028 36.0508C373.479 37.8582 371.801 39.0631 369.047 39.0631C364.916 39.0631 362.161 36.266 362.075 30.973H375.803C375.975 30.4136 376.104 29.553 376.104 28.5632C376.104 23.3563 372.575 20.301 368.1 20.301Z" fill="black"/>
<path d="M386.809 41.8602C392.36 41.8602 395.2 38.9771 395.2 35.7066C395.2 32.9956 393.565 30.973 389.262 29.3808L387.928 28.9075C385.002 27.8317 383.969 27.1001 383.969 25.2067C383.969 23.4424 385.346 22.2805 387.971 22.2805C389.004 22.2805 389.993 22.5387 390.94 23.012L391.629 26.4546H393.866L394.038 22.0653C392.188 20.9465 390.338 20.301 388.014 20.301C383.194 20.301 380.526 23.2272 380.526 26.3686C380.526 29.2948 382.592 31.0161 385.733 32.1779L387.713 32.9095C390.424 33.8562 391.715 34.8029 391.715 36.6533C391.715 38.5898 390.165 39.9238 386.895 39.9238C385.561 39.9238 384.442 39.7086 383.409 39.2352L382.592 35.4914H380.225L380.397 40.225C382.506 41.3008 384.399 41.8602 386.809 41.8602Z" fill="black"/>
</svg>
